<?xml version="1.0" encoding="UTF-8" standalone="no"?>
<svg width="23px" height="23px" viewBox="0 0 23 23" version="1.1" xmlns="http://www.w3.org/2000/svg" xmlns:xlink="http://www.w3.org/1999/xlink" xmlns:sketch="http://www.bohemiancoding.com/sketch/ns">
    <!-- Generator: Sketch 3.3.2 (12043) - http://www.bohemiancoding.com/sketch -->
    <title>Imported Layers Copy</title>
    <desc>Created with Sketch.</desc>
    <defs>
        <path id="path-1" d="M0.00385714286,5.05524793 L8.70233333,0.0435764463 L12.8381905,5.05524793 L4.71804762,10.1100207 L0.00385714286,5.05524793"></path>
    </defs>
    <g id="Page-1" stroke="none" stroke-width="1" fill="none" fill-rule="evenodd" sketch:type="MSPage">
        <g id="bands" sketch:type="MSArtboardGroup" transform="translate(-979.000000, -278.000000)">
            <g id="Imported-Layers-Copy" sketch:type="MSLayerGroup" transform="translate(979.000000, 278.000000)">
                <path d="M22.991381,11.4960083 C22.991381,17.8267583 17.8487143,22.9587996 11.5048571,22.9587996 C5.16104762,22.9587996 0.0183809524,17.8267583 0.0183809524,11.4960083 C0.0183809524,5.16530579 5.16104762,0.0332644628 11.5048571,0.0332644628 C17.8487143,0.0332644628 22.991381,5.16530579 22.991381,11.4960083" id="Fill-1" fill="#636363" sketch:type="MSShapeGroup"></path>
                <path d="M19.2100476,2.99503719 L3.01614286,19.2181157 C5.11685714,21.516595 8.142,22.9587996 11.5049048,22.9587996 C17.8487143,22.9587996 22.991381,17.8267583 22.991381,11.4960083 C22.991381,8.12413223 21.5323333,5.09250413 19.2100476,2.99503719" id="Fill-2" fill="#636363" sketch:type="MSShapeGroup"></path>
                <path d="M8.28957143,11.4960558 L8.28957143,6.4843843 L16.9880476,11.4960558 L8.28957143,16.5077273 L8.28957143,11.4960558" id="Fill-3" fill="#EFEFEF" sketch:type="MSShapeGroup"></path>
                <g id="Group-6" transform="translate(8.285714, 11.452479)">
                    <mask id="mask-2" sketch:name="Clip 5" fill="white">
                        <use xlink:href="#path-1"></use>
                    </mask>
                    <g id="Clip-5"></g>
                    <path d="M0.00385714286,5.05524793 L8.70233333,0.0435764463 L12.8381905,5.05524793 L4.71804762,10.1100207 L0.00385714286,5.05524793" id="Fill-4" sketch:type="MSShapeGroup" mask="url(#mask-2)"></path>
                </g>
            </g>
        </g>
    </g>
</svg>